<?xml version="1.0" encoding="utf-8"?>
<!-- Generator: Adobe Illustrator 18.1.1, SVG Export Plug-In . SVG Version: 6.00 Build 0)  -->
<svg version="1.1" id="triple3dLogo" xmlns="http://www.w3.org/2000/svg" xmlns:xlink="http://www.w3.org/1999/xlink" x="0px"
	 y="0px" viewBox="20 326 1000 310" enable-background="new 20 326 1000 310" xml:space="preserve">
<polygon fill="#3699CB" points="357.8,426.8 310,344 214.5,344 119,344 71.2,426.8 166.8,426.8 119,509.5 166.8,592.2 262.2,592.2 
	214.5,509.5 262.2,426.8 "/>
<polygon fill="#1D7EBA" points="214.5,344 166.8,426.8 119,344 "/>
<polygon fill="#1D7EBA" points="310,344 262.2,426.8 214.5,344 "/>
<polygon fill="#02599F" points="214.5,509.5 166.8,592.2 119,509.5 "/>
<polygon fill="#1D7EBA" points="119,509.5 166.8,426.8 214.5,509.5 "/>
<polygon fill="#0F385C" points="166.8,592.2 214.5,509.5 262.2,592.2 "/>
<polygon fill="#02599F" points="166.8,426.8 214.5,344 262.2,426.8 "/>
<polygon fill="#3699CB" points="71.2,426.8 119,344 166.8,426.8 "/>
<polygon fill="#3699CB" points="262.2,426.8 310,344 357.8,426.8 "/>
<polygon fill="#3699CB" points="262.2,426.8 214.5,509.5 166.8,426.8 "/>
<g id="tripleText">
	<path d="M333,592.2h-14v-97.8h-35v-14h84v14h-35V592.2z"/>
	<path d="M421.5,521c-6,0-11.2,2.2-15.8,6.5s-6.5,9.8-6.5,15.8v49h-14v-84h14v9.8c6-7.2,13.5-11,22.2-11L421.5,521L421.5,521z"/>
	<path d="M439.2,480.5h14v14h-14V480.5z M439.2,508.2h14v84h-14V508.2z"/>
	<path d="M567.8,550.2c0,11.8-4,21.8-12.2,30.5c-8.2,8.5-18,12.8-29.5,12.8c-12.2,0-22.5-4.5-30.8-13.8v40.5h-14v-112h14v12.5
		c8.3-9.2,18.5-14,30.8-14c11.8,0,21.5,4.2,29.8,12.8C563.8,528.5,567.8,538.5,567.8,550.2z M553.8,550.2c0-8-3-15-8.8-20.8
		s-12.5-8.8-20.5-8.8s-15,3-20.8,8.8S495,542,495,550.2c0,8,3,15,8.8,20.8s12.8,8.5,20.8,8.5s15-2.8,20.5-8.5
		C550.8,565.2,553.8,558.2,553.8,550.2z"/>
	<path d="M588.8,480.5h14v111.8h-14V480.5z"/>
	<path d="M710.2,550.2c0,2.2-0.2,4.8-0.5,7h-71.2c1.5,6.5,5,12,10.5,16.2c5.2,4.2,11.2,6.2,18,6.2c10.5,0,18.8-4.5,24.5-13.2
		l11.8,7.8c-4,6-9.3,10.8-15.8,14.2c-6.5,3.5-13.2,5-20.5,5c-12,0-22.2-4.2-30.8-12.5c-8.5-8.5-12.8-18.8-12.8-30.5
		c0-12,4.2-22,12.8-30.5s18.8-12.8,30.8-12.8c12,0,22.2,4.2,30.7,12.8C706,528.2,710.2,538.2,710.2,550.2z M695.5,543.2
		c-1.5-6.5-5-11.8-10.5-16c-5.2-4.2-11.5-6.2-18-6.2c-6.5,0-12.5,2-18,6.2s-9,9.5-10.5,16H695.5z"/>
	<path d="M845.5,558.5c0,9.8-3.5,18-10.2,24.8c-6.8,6.8-15,10-24.8,10c-8,0-15-2.2-21.2-7.2c-6.2-4.8-10.5-11-12.5-18.8l13.5-3.5
		c1.2,4.5,3.8,8.2,7.5,11.2c4,3,8.2,4.2,12.8,4.2c5.8,0,10.8-2,14.8-6.2c4-4,6.2-9,6.2-14.8s-2-10.8-6.2-14.8c-4-4.2-9-6.2-14.8-6.2
		h-7v-14h7c4.3,0,7.8-1.5,10.8-4.5c3-3,4.5-6.8,4.5-10.8c0-4.2-1.5-7.8-4.5-10.8c-3-3-6.8-4.5-10.8-4.5c-3.5,0-6.8,1-9.2,3.2
		c-2.8,2.2-4.5,5-5.5,8.2l-13.5-3.5c1.8-6.5,5-11.8,10.5-15.8c5.2-4,11.2-6,18-6c8,0,15,2.8,20.7,8.5c5.8,5.8,8.8,12.8,8.8,20.8
		c0,9.8-4,17-12,22C839.5,536,845.5,545.5,845.5,558.5z"/>
	<path d="M971.2,536.2c0,15.5-5.5,28.5-16.5,39.5s-24,16.5-39.5,16.5h-42V480.5h42c15.2,0,28.5,5.5,39.5,16.5
		C965.8,507.8,971.2,521,971.2,536.2z M957.2,536.2c0-11.5-4-21.2-12.2-29.5s-18-12.2-29.5-12.2h-28v83.8h28
		c11.5,0,21.2-4,29.5-12.2C953.2,557.5,957.2,547.8,957.2,536.2z"/>
</g>
</svg>